<svg width="50" height="50" viewBox="0 0 50 50" fill="none" xmlns="http://www.w3.org/2000/svg">
<path d="M28.4231 23.7118C28.5705 24.0002 28.8639 24.1668 29.1672 24.1668C29.2939 24.1668 29.4238 24.1376 29.5447 24.076C29.5938 24.051 34.4989 21.5593 36.918 20.7952C37.3564 20.656 37.5996 20.1877 37.4605 19.7494C37.3221 19.311 36.8572 19.0669 36.4147 19.2052C33.8664 20.0111 28.9947 22.4861 28.7881 22.5911C28.378 22.7994 28.2148 23.3011 28.4231 23.7118Z" fill="#FEB03A"/>
<path d="M29.1672 14.1668C29.2938 14.1668 29.4238 14.1376 29.5447 14.076C29.5938 14.051 34.4989 11.5593 36.918 10.7952C37.3564 10.656 37.5996 10.1877 37.4605 9.74938C37.3221 9.311 36.8572 9.06687 36.4147 9.20524C33.8664 10.0111 28.9947 12.4861 28.7881 12.5911C28.3781 12.7994 28.2147 13.301 28.423 13.7118C28.5705 14.0001 28.8639 14.1668 29.1672 14.1668Z" fill="#FEB03A"/>
<path d="M49.1663 12.5003C48.7055 12.5003 48.333 12.8736 48.333 13.3336V45.8333C48.333 47.2116 47.2113 48.3333 45.833 48.3333H25.8332V46.4159C27.0482 45.9909 30.2131 45 33.3331 45C40.5923 45 45.5214 46.6075 45.5705 46.6242C45.8213 46.7075 46.1014 46.6658 46.3205 46.5091C46.538 46.3525 46.6663 46.1008 46.6663 45.8332V9.16702C46.6663 8.77621 46.3955 8.43783 46.0138 8.35365C46.0138 8.35365 45.3605 8.20785 44.2438 8.00277C43.7929 7.91947 43.3572 8.21947 43.2738 8.67113C43.1905 9.12445 43.4896 9.55862 43.9421 9.64192C44.368 9.72024 44.7246 9.78938 44.9996 9.84446V44.7258C43.1113 44.2308 38.9181 43.3334 33.333 43.3334C29.7022 43.3334 26.1356 44.5258 25.0322 44.93C24.0514 44.4967 21.0865 43.3334 17.4998 43.3334C11.7598 43.3334 7.03149 44.28 4.99986 44.7609V9.81194C6.66401 9.40276 11.579 8.33363 17.4998 8.33363C20.5381 8.33363 23.1439 9.27943 24.1664 9.70696V42.5001C24.1664 42.8001 24.328 43.0776 24.5889 43.2251C24.8497 43.3734 25.1714 43.3692 25.4289 43.2142C25.5114 43.1651 33.768 38.2334 41.0963 35.7909C41.4371 35.6768 41.6663 35.3593 41.6663 35.0001V0.833691C41.6663 0.560353 41.5321 0.304496 41.3071 0.148736C41.0838 -0.00712259 40.7971 -0.0429622 40.5396 0.0529355C33.8722 2.5537 27.1257 6.752 27.0581 6.7937C26.6681 7.03784 26.5489 7.552 26.793 7.94203C27.0364 8.33207 27.5506 8.45121 27.9414 8.20707C28.003 8.16791 33.8722 4.51628 39.9996 2.05214V34.4035C34.3113 36.3802 28.3721 39.6077 25.833 41.0526V9.16702C25.833 8.85121 25.6547 8.56283 25.3722 8.42123C25.2288 8.35043 21.8139 6.66704 17.4998 6.66704C9.96984 6.66704 4.18073 8.29623 3.93737 8.36615C3.57985 8.46781 3.33318 8.79535 3.33318 9.16702V45.8334C3.33318 46.0943 3.45652 46.341 3.66403 46.4985C3.81071 46.6093 3.98737 46.6668 4.16657 46.6668C4.24323 46.6668 4.31989 46.656 4.39489 46.6343C4.45241 46.6185 10.2149 45.0001 17.4998 45.0001C20.5464 45.0001 23.1497 45.9485 24.1664 46.3743V48.3334H4.16657C2.78826 48.3334 1.66659 47.2117 1.66659 45.8334V13.3337C1.66659 12.8737 1.29325 12.5004 0.833294 12.5004C0.373337 12.5004 0 12.8737 0 13.3337V45.8334C0 48.1309 1.86913 50.0001 4.16667 50.0001H45.833C48.1305 50.0001 49.9997 48.131 49.9997 45.8334V13.3337C49.9996 12.8736 49.6271 12.5003 49.1663 12.5003Z" fill="#FEB03A"/>
<path d="M28.4231 18.7118C28.5705 19.0002 28.8639 19.1668 29.1672 19.1668C29.2939 19.1668 29.4238 19.1376 29.5447 19.076C29.5938 19.051 34.4989 16.5593 36.918 15.7952C37.3564 15.656 37.5996 15.1877 37.4605 14.7494C37.3221 14.311 36.8572 14.0669 36.4147 14.2052C33.8664 15.0111 28.9947 17.4861 28.7881 17.5911C28.378 17.7994 28.2148 18.3011 28.4231 18.7118Z" fill="#FEB03A"/>
<path d="M28.4231 28.7118C28.5705 29.0002 28.8639 29.1668 29.1672 29.1668C29.2939 29.1668 29.4238 29.1376 29.5447 29.076C29.5938 29.051 34.4989 26.5593 36.918 25.7952C37.3564 25.656 37.5996 25.1877 37.4605 24.7494C37.3221 24.311 36.8572 24.0669 36.4147 24.2052C33.8664 25.0111 28.9947 27.4861 28.7881 27.5911C28.378 27.7994 28.2148 28.3011 28.4231 28.7118Z" fill="#FEB03A"/>
<path d="M20.1898 15.4652C15.0441 14.2577 9.19655 15.7961 8.95075 15.8619C8.50661 15.981 8.24246 16.4377 8.3616 16.8827C8.4616 17.2552 8.79821 17.5002 9.16579 17.5002C9.23747 17.5002 9.30993 17.491 9.38249 17.4719C9.43835 17.456 15.0683 15.9752 19.8099 17.0877C20.2557 17.1919 20.7066 16.9143 20.8116 16.466C20.9165 16.0185 20.6382 15.5702 20.1898 15.4652Z" fill="#FEB03A"/>
<path d="M20.1898 20.4653C15.0441 19.2587 9.19655 20.7962 8.95075 20.862C8.50661 20.9812 8.24246 21.4379 8.3616 21.8828C8.4616 22.2553 8.79821 22.5003 9.16579 22.5003C9.23747 22.5003 9.30993 22.4911 9.38249 22.472C9.43835 22.4561 15.0683 20.9753 19.8099 22.0878C20.2557 22.192 20.7066 21.9144 20.8116 21.4661C20.9165 21.0187 20.6382 20.5703 20.1898 20.4653Z" fill="#FEB03A"/>
<path d="M28.4231 33.7116C28.5705 34 28.8639 34.1666 29.1672 34.1666C29.2939 34.1666 29.4238 34.1374 29.5447 34.0758C29.5938 34.0508 34.4989 31.5591 36.918 30.7949C37.3564 30.6558 37.5996 30.1874 37.4605 29.7491C37.3221 29.3109 36.8572 29.0666 36.4147 29.205C33.8664 30.0108 28.9947 32.4858 28.7881 32.5908C28.378 32.7991 28.2148 33.3009 28.4231 33.7116Z" fill="#FEB03A"/>
<path d="M20.1898 25.4652C15.0441 24.2586 9.19655 25.7952 8.95075 25.8619C8.50661 25.9811 8.24246 26.4378 8.3616 26.8827C8.4616 27.2552 8.79821 27.5011 9.16579 27.5011C9.23747 27.5011 9.30993 27.4911 9.38249 27.4719C9.43835 27.456 15.0683 25.9752 19.8099 27.0877C20.2557 27.1919 20.7066 26.9144 20.8116 26.466C20.9165 26.0186 20.6382 25.5702 20.1898 25.4652Z" fill="#FEB03A"/>
<path d="M20.1898 35.4652C15.0441 34.2577 9.19655 35.7961 8.95075 35.8619C8.50661 35.981 8.24246 36.4378 8.3616 36.8827C8.4616 37.2552 8.79821 37.5011 9.16579 37.5011C9.23747 37.5011 9.30993 37.4911 9.38249 37.4719C9.43835 37.456 15.0683 35.9752 19.8099 37.0877C20.2557 37.191 20.7066 36.9143 20.8116 36.466C20.9165 36.0185 20.6382 35.5702 20.1898 35.4652Z" fill="#FEB03A"/>
<path d="M20.1898 30.4651C15.0441 29.2576 9.19655 30.7951 8.95075 30.8618C8.50661 30.981 8.24246 31.4377 8.3616 31.8826C8.4616 32.2551 8.79821 32.501 9.16579 32.501C9.23747 32.501 9.30993 32.491 9.38249 32.4718C9.43835 32.4559 15.0683 30.9751 19.8099 32.0876C20.2557 32.1918 20.7066 31.9142 20.8116 31.4659C20.9165 31.0184 20.6382 30.5701 20.1898 30.4651Z" fill="#FEB03A"/>
</svg>
