<svg width="50" height="50" viewBox="0 0 50 50" fill="none" xmlns="http://www.w3.org/2000/svg">
<path d="M28.3336 14.1665H25.0003C24.5401 14.1665 24.167 14.5396 24.167 14.9998V39.9994C24.167 40.4596 24.5401 40.8327 25.0003 40.8327H28.3336C28.7938 40.8327 29.1669 40.4596 29.1669 39.9994V14.9998C29.1669 14.5396 28.7938 14.1665 28.3336 14.1665ZM27.5003 39.1661H25.8336V15.8331H27.5003V39.1661Z" fill="black"/>
<path d="M26.667 5.83325C24.8261 5.83325 23.3337 7.32562 23.3337 9.16653C23.3337 11.0074 24.8261 12.4998 26.667 12.4998C28.5079 12.4998 30.0003 11.0074 30.0003 9.16653C30.0003 7.32562 28.5079 5.83325 26.667 5.83325ZM26.667 10.8332C25.7465 10.8332 25.0004 10.087 25.0004 9.16653C25.0004 8.24603 25.7465 7.49989 26.667 7.49989C27.5875 7.49989 28.3337 8.24603 28.3337 9.16653C28.3337 10.087 27.5875 10.8332 26.667 10.8332Z" fill="black"/>
<path d="M26.6671 0C13.7806 0 3.33411 10.4465 3.33411 23.3329C3.32182 26.9253 4.15201 30.4703 5.75824 33.6836L0.0533329 48.8725C0.0179168 48.9666 -0.000103716 49.0662 4.49004e-07 49.1667C0.000417109 49.6269 0.373953 49.9996 0.834153 49.9992C0.93436 49.9992 1.03373 49.9811 1.12748 49.9458L16.3164 44.2418C19.5296 45.848 23.0747 46.6783 26.6671 46.6659C39.5535 46.6659 50 36.2194 50 23.3329C50 10.4465 39.5535 0 26.6671 0ZM26.6671 44.9993C23.2158 45.0116 19.813 44.1857 16.7514 42.5926C16.5415 42.4838 16.2951 42.4692 16.0739 42.5526L2.25996 47.7409L7.44821 33.9261C7.53112 33.705 7.51623 33.459 7.40738 33.2494C5.81407 30.1876 4.98815 26.7846 5.00075 23.3329C5.01408 11.3725 14.7066 1.67997 26.6671 1.66664C38.633 1.66664 48.3334 11.367 48.3334 23.3329C48.3334 35.2989 38.633 44.9993 26.6671 44.9993Z" fill="black"/>
</svg>
