<svg width="50" height="50" viewBox="0 0 50 50" fill="none" xmlns="http://www.w3.org/2000/svg">
<circle cx="25" cy="25" r="22.5" stroke="#eff6fc" stroke-width="5"/>
<circle cx="25" cy="25" r="18" stroke="#C7D5EF" stroke-width="4"/>
<path d="M25 15L26.531 21.304L32.071 17.929L28.696 23.469L35 25L28.696 26.531L32.071 32.071L26.531 28.696L25 35L23.469 28.696L17.929 32.071L21.304 26.531L15 25L21.304 23.469L17.929 17.929L23.469 21.304L25 15Z" fill="#B9C2C9"/>
<path d="M24.464 27.862L33.241 33.243L27.862 24.465L24.464 27.862Z" fill="#F6AF26"/>
<path d="M25.778 22.381L17 17L22.38 25.779L25.778 22.381Z" fill="#37D288"/>
<path d="M25.121 28.177C26.8082 28.177 28.176 26.8092 28.176 25.122C28.176 23.4348 26.8082 22.067 25.121 22.067C23.4338 22.067 22.066 23.4348 22.066 25.122C22.066 26.8092 23.4338 28.177 25.121 28.177Z" fill="#8899A6"/>
<path d="M25.121 26.77C26.0312 26.77 26.769 26.0322 26.769 25.122C26.769 24.2118 26.0312 23.474 25.121 23.474C24.2108 23.474 23.473 24.2118 23.473 25.122C23.473 26.0322 24.2108 26.77 25.121 26.77Z" fill="#C7D5EF"/>
</svg>
