<svg width="836" height="1000" viewBox="0 0 836 1000" fill="none" xmlns="http://www.w3.org/2000/svg">
<path d="M413.3 598.6L377.3 598.4L373 600.1L369.5 599.8L364.4 601.7L363.3 604.4L369.3 613.1L371.7 622.4L375.3 635.8L371.5 641.3L370.9 644.1L373.8 652.4L376.9 660.8L380.5 665.8L381.1 673.6L379.7 683.9L375.7 690L368.6 699.1L365.7 704.7L361.6 717.2L360.8 723.1L356.5 735.8L354.6 748L355.6 756.7L361.5 754L368.7 751.7L376.5 752.1L383.6 758.4L385.5 757.4L434.3 756.8L442.5 763.4L471.6 765.4L494 759.7L486.4 751.1L478.6 739.8L480.2 695.8L505.5 695.9L504.5 691.2L506.5 686L504.5 679.5L506 672.8L504.8 668.5L499.3 667.7L491.7 669.7L486.4 669.4L483.4 670.7L484.3 654.2L480.4 649.1L479.6 640.6L481.5 632.2L479.1 626.9L479 618.2L464.2 618.3L465.3 613.3L459.1 613.4L458.4 615.8L450.8 616.3L447.7 624.4L445.8 627.8L439.1 625.9L435.1 627.8L427 628.9L422.4 621.7L419.7 617.2L416.2 608.9L413.3 598.6V598.6ZM365.9 595.9L366.3 589.9L368.3 586.4L372.8 583.5L368.2 578.7L364.5 581L359.5 587L362.8 597.4L365.9 595.9Z" fill="#F5f5fa" stroke="#eee" stroke-linejoin="round"/>
<path d="M587 556.1L586.4 550.7L579.9 549.8L576.1 557.7L568.7 556.6L571.7 562.9L571.8 565.3L576.1 578.5V579.1L577.3 578.9L581.8 573.9L586.7 566.7L589.7 563.8L589.6 559.3L587 556.1V556.1Z" fill="#F5f5fa" stroke="#eee" stroke-linejoin="round"/>
<path d="M258 356L248.7 348L244.4 348.1L240.3 352.1L237.7 356.3L231.7 357.5L229.2 363.6L225.1 365.2L223.5 372.4L227.2 376.5L231.5 381.4L231.9 388.2L234.4 391L233.9 422.8L236.9 432.3L247 430.7L247.6 408.4L247.3 399.6L249.6 390.9L253.3 386.6L259.2 378.1L257.9 374.4L260.3 368.8L257.5 360.6L258 356V356Z" fill="#F5f5fa" stroke="#eee" stroke-linejoin="round"/>
<path d="M218.7 310.8H210.9L207.9 308.2L201.2 310.1L189.9 315.9L187.6 320.2L178.2 326.4L176.5 330L171.4 332.8L165.6 330.9L162.2 334.3L160.4 343.8L150.7 355.2L151 359.9L147.6 365.8L148.4 373.8L153.9 376.8L156 381.4L161.4 384.3L165.7 380.9L171.4 380.3L179.7 383.9L178.1 373.5L178.4 365.6L199.5 365L204.9 366L208.8 363.8L214.4 364.9L225.1 365.2L229.2 363.6L231.7 357.5L237.7 356.3L240.3 352.1L240.6 342.6L226.6 339.5L226.2 332.8L219.3 323.8L217.7 317.5L218.7 310.8V310.8Z" fill="#F5f5fa" stroke="#eee" stroke-linejoin="round"/>
<path d="M518.6 762.7L516.4 761.7L509.5 764.8H505.9L498 770.2L493.6 764.5L474.9 769.4L465.9 769.8L464 819.1L452.2 819.6L450.8 860L454 862L460.5 875.2L459 883.6L461.5 888.5L470 887.1L476.2 880.9L482 876.7L485.2 870.1L491.2 866.9L496.1 868.6L501.6 872.5L511.2 873.1L519 869.9L520.4 865.6L522.8 859L529.3 857.9L533.2 852.7L537.6 843.4L548.8 833.1L566.1 822.9L558.8 816.7L549.6 814.6L546.5 805.8L546.7 800.9L541.6 799.4L528.6 784.2L525.1 776.2L522.8 773.8L518.6 762.7V762.7Z" fill="#F5f5fa" stroke="black" stroke-linejoin="round"/>
<path d="M505 398.1L504 397.4L499.8 393.4L498.9 389.1L500.8 383.4L500.7 377.7L493.5 369.1L492 363.2L484.3 365.5L478.3 371.1L469.7 386.2L458.4 392.6L446.6 391.8L443.2 393L444.4 397.9L438.1 402.7L433 408.1L417.7 413.4L414.7 410.3L412.6 410L410.4 413.6L400.4 414.6L394.3 428.6L391.4 431.2L390.6 441.9L391.8 447.7L390.9 451.8L396.7 459.1L397.7 464L402.3 471.2L407.9 475.6L408.5 481.9L409.8 485.9L416.1 473.1L423.4 465.7L431.6 468.1L439.5 468.8L440.5 459.2L445.2 452.1L451.7 447.7L461.8 452.4L469.6 457.5L478.6 458.9L487.7 461.6L491.3 453.2L492.9 452.1L498.5 453.5L512 446.6L516.9 449.6L520.8 449.1L522.6 445.8L527.1 444.6L536.3 446L544.2 446.4L548.2 444.9L546.2 440.5L537 435L533.8 426.7L528.6 420.7L520.3 413.5L520.2 409L513.4 403.5L505 398.1V398.1Z" fill="#F5f5fa" stroke="black" stroke-linejoin="round"/>
<path d="M148.4 373.8L143.4 375.9L140.5 377.6L138.7 371.7L135.2 373.3L133.1 373L130.8 377L121.4 376.9L118.1 374.8L116.5 376.1L114 377.2L113 381.9L115.8 387.6L118.8 398.7L114.2 400.3L113.1 402.2L114 404.9L113.2 411H111.3L110.7 415L111.9 421.7L109.2 427.8L112.8 431.6L116.6 432.5L121.8 438.3L122.1 443.8L121 445.5L120 456.9L122.3 457.3L134.4 452.2L142.9 448.2L157.4 445.8L165.2 445.6L173.7 448.3L179.3 448.2L179.8 442.7L174.6 430.8L177.8 415.2L182.9 403.6L179.7 383.9L171.4 380.3L165.7 380.9L161.4 384.3L156 381.4L153.9 376.8L148.4 373.8V373.8Z" fill="#F5f5fa" stroke="#eee" stroke-linejoin="round"/>
<path d="M395.5 366.6L395.9 357.4L394.9 348.3L390 339.4L386.6 340.2L386.2 344.6L391.1 350.1L389.8 352.6L389.3 357.2L379.1 367.9L376 376.7L374.4 383.9L371.8 387L369.4 396.7L363 402.4L361.1 409.4L358.4 415L357.3 420.7L349 425.4L342.1 419.7L337.5 419.9L330.3 428L326.7 428.1L321 441.5L317.9 451.3L317.8 455.1L320.9 457.1L323.4 463.3L329 465.6L333.8 474.8L332 485.7L351.9 486L357.7 485.1L365.1 487L372.4 485.2L373.9 485.9L389.3 486.5L399.2 490.1L408.9 493.4L409.8 485.9L408.5 481.9L407.9 475.6L402.3 471.2L397.7 464L396.7 459.1L390.9 451.8L391.8 447.7L390.6 441.9L391.4 431.2L394.3 428.6L400.4 414.6L402.2 410.9L398.3 401.3L396.5 395.6L391.2 393.3L384 385.2L386.5 378.7L392.1 380L395.5 379.1L402.3 379.2L395.5 366.6V366.6Z" fill="#F5f5fa" stroke="#eee" stroke-linejoin="round"/>
<path d="M536.3 446L527.1 444.6L522.6 445.8L520.8 449.1L516.9 449.6L512 446.6L498.5 453.5L492.9 452.1L491.3 453.2L487.7 461.6L478.6 458.9L469.6 457.5L461.8 452.4L451.7 447.7L445.2 452.1L440.5 459.2L439.5 468.8L438.8 477.2L435.2 484.6L432.8 493.2L431.3 505.5L432 513.3L430 518.1L429.7 523.2L428.3 527.6L420.2 534.3L414.6 541.4L409.3 554.8L409.6 566.2L406.5 570.6L399.3 577.4L392.1 586.1L387.6 583.6L386.8 579.7L380.2 579.6L376 584.9L372.8 583.5L368.3 586.4L366.3 589.9L365.9 595.9L362.8 597.4L364.4 601.7L369.5 599.8L373 600.1L377.3 598.4L413.3 598.6L416.2 608.9L419.7 617.2L422.4 621.7L427 628.9L435.1 627.8L439.1 625.9L445.8 627.8L447.7 624.4L450.8 616.3L458.4 615.8L459.1 613.4L465.3 613.3L464.2 618.3L479 618.2L479.1 626.9L481.5 632.2L479.6 640.6L480.4 649.1L484.3 654.2L483.4 670.7L486.4 669.4L491.7 669.7L499.3 667.7L504.8 668.5L509 668.8L509.6 673.1L515.3 672.8L523 674.1L526.9 680.3L536.6 682.3L544.1 677.9L546.7 685.2L555.9 687.1L560.2 693L565 700.6L574.3 700.7L573.7 685.8L570.3 688.3L561.9 682.9L558.7 680.5L560.6 666.6L563.1 650.2L560.5 644.1L564.1 635.3L567.4 633.6L583.8 631.3L585.9 631.9L586.5 629.6L583.1 625.9L581.6 618.3L574.3 610.7L570.2 600.8L572.5 595L569.3 587.2L571.7 565.1L571.8 565.3L571.7 562.9L568.7 556.6L569.9 549L571.6 548L572.1 539.7L575.6 535.9L575.7 525.4L578.6 520.1L579.2 509L581.8 502.6L586.4 495.4L591.1 491.7L595 486.8L590.1 484.9L590.7 468.8L579.8 459.6L576.9 453.7L570.1 456.6L564.4 455.7L561.2 458L555.7 456.3L548.2 444.9L544.2 446.4L536.3 446Z" fill="#F5f5fa" stroke="#eee" stroke-linejoin="round"/>
<path d="M439.5 468.8L431.6 468.1L423.4 465.7L416.1 473.1L409.8 485.9L408.9 493.4L399.2 490.1L389.3 486.5L373.9 485.9L373 492L376.4 499.1L385.5 498L388.6 500.7L383.3 516.8L389.1 525L390.4 535.8L388.8 545L385.1 551.5L374.3 550.9L367.8 544.3L366.8 550.4L358.5 552.1L354.3 555.6L358.9 564.7L349.6 572.4L359.5 587L364.5 581L368.2 578.7L372.8 583.5L376 584.9L380.2 579.6L386.8 579.7L387.6 583.6L392.1 586.1L399.3 577.4L406.5 570.6L409.6 566.2L409.3 554.8L414.6 541.4L420.2 534.3L428.3 527.6L429.7 523.2L430 518.1L432 513.3L431.3 505.5L432.8 493.2L435.2 484.6L438.8 477.2L439.5 468.8V468.8Z" fill="#F5f5fa" stroke="#eee" stroke-linejoin="round"/>
<path d="M738.3 358.7L733 354.9L739.8 351.6L739.9 345.9L736.9 341.6L733.3 345L728.1 343.8L724.1 349.9L720.2 356.4L721.3 360.2L721.6 364.4L728.4 364.6L731.3 363.7L734.1 366.1L738.3 358.7V358.7Z" fill="#F5f5fa" stroke="#eee" stroke-linejoin="round"/>
<path d="M310.4 5.70005L302.6 6.50005L297.8 3.30005L285.6 3.40005L275 8.90005L269.2 6.80005L250.3 8.00005L230.9 10.5L219.9 14.8L212.7 20.6L200.3 23L189.2 30.7001L193.4 39.7001L194.1 48.1L198 62.8L201.1 65.7L198.9 71.1L183.7 73.4L178.3 78.5L171.6 79.7L171 89.9L157.2 95.3L152.6 102.3L143 106L131.2 108.1L112 118.3L111.8 134.6V135.6L111.5 138.3L155.6 171.8L195.6 202L236 232.2L238.9 238.6L246.4 242.6L251.9 244.8L252.1 253.6L265.4 252.3L282.3 246.1L316.8 219L357.3 192.6L351.9 183.9L342.3 177.5L336.8 180L332.5 172.3L331.9 166.4L324.7 156.3L329.3 150.5L328 141.8L329.4 134.2L328.4 127.9L330.2 116.6L329.4 110.2L325.3 98L319.6 73.3L312.3 67.7L312.1 64.4001L302.4 56.1L301.1 45.7001L308.1 37.9001L310.5 26.3L308.2 12.9L310.4 5.70005V5.70005Z" fill="#F5f5fa" stroke="#eee" stroke-linejoin="round"/>
<path d="M546.8 88.1L534.9 84.1L523.4 80.4L507.8 80.6L504.1 87.2L506.3 93.1L503.9 101.6L508.1 112.8L511 162L513.2 212.9H561.3H607.7H655.1L652.9 210.1L638.2 197.7L637.3 188.7L639.5 186.3L627.9 171L623.5 163.1L618.6 155.6L608.1 134L599.7 120.1L593.6 105.6L594.7 104.3L604.8 124.1L610.6 130.3L614.9 134.7L617.4 132.3L620.1 125.1L621.7 114.7L624.5 109.1L623 105.6L614.5 85.5L609.1 88.9L599.9 88.1L590.3 84.9L588 89.4L584.2 82.6L575.7 80.8L565.5 82L561 85.9L552.4 90.3L546.8 88.1V88.1Z" fill="#F5f5fa" stroke="#eee" stroke-linejoin="round"/>
<path d="M695.6 303.8L688.6 297L684.6 284.3L676.8 268.3L671.1 276.2L662.3 278.5L658.7 282.7L658 291.9L653.7 312.2L655.2 317.8L669.5 320.7L672.8 310.3L680.4 316.6L687.4 313.4L690.4 316.3L698.7 316.4L709.5 322L712.9 326.8L718.4 331.2L723.8 339.3L728.1 343.8L733.3 345L736.9 341.6L730.7 337.4L726.7 332.7L719.8 324.7L712.7 316.8L695.6 303.8V303.8Z" fill="#F5f5fa" stroke="#eee" stroke-linejoin="round"/>
<path d="M672.8 310.3L669.5 320.7L655.2 317.8L653.8 329.7L649.3 343.3L642.2 350.1L637.4 360.7L636.3 366.4L630.7 370.2L627.4 384.7L627.5 386.4L627.9 397.2L626.1 401.4L619.7 401.7L615.7 409.6L623.2 410.6L629.5 417.3L631.7 422.9L637.4 426.1L644.8 441.1L651.2 443.5L651.3 451.2L655.5 455.8H664L679.7 467.5L683.5 467.7L686.4 467.3L689.1 468.9L697.3 470L700.8 464.2L711.9 458.4L716.8 463.1H725.2L728.5 458.7L736.3 458.5L747 448.7L762.9 448.1L796.4 406.6L786.1 406.7L745.8 390.3L741 385.3L736.4 378.7L731.6 371L734.1 366.1L731.3 363.7L728.4 364.6L721.6 364.4L721.3 360.2L720.2 356.4L724.1 349.9L728.1 343.8L723.8 339.3L718.4 331.2L712.9 326.8L709.5 322L698.7 316.4L690.4 316.3L687.4 313.4L680.4 316.6L672.8 310.3V310.3Z" fill="#F5f5fa" stroke="#eee" stroke-linejoin="round"/>
<path d="M373.9 485.9L372.4 485.2L365.1 487L357.7 485.1L351.9 486L352 502.7L334.3 502.5L330.1 503.3L327.7 513.6L324.7 523.7L322 528.1L321.7 532.7L329 547L337.1 558.4L349.6 572.4L358.9 564.7L354.3 555.6L358.5 552.1L366.8 550.4L367.8 544.3L374.3 550.9L385.1 551.5L388.8 545L390.4 535.8L389.1 525L383.3 516.8L388.6 500.7L385.5 498L376.4 499.1L373 492L373.9 485.9V485.9Z" fill="#F5f5fa" stroke="#eee" stroke-linejoin="round"/>
<path d="M214.4 364.9L208.8 363.8L204.9 366L199.5 365L178.4 365.6L178.1 373.5L179.7 383.9L182.9 403.6L177.8 415.2L174.6 430.8L179.8 442.7L179.3 448.2L190.2 452.1L201.2 448.1L207.9 443.4L227.1 435.3L224.3 430.4L221.1 421.6L220.1 414.8L222.8 402.3L219.8 397.3L218.6 386.4V376.3L213.5 369.2L214.4 364.9V364.9Z" fill="#F5f5fa" stroke="#eee" stroke-linejoin="round"/>
<path d="M74.3999 345.2L72.6 345.9L66 344.8L65.1 346.4L62.3999 346.7L53.7 343.3L47.8999 343.2L47.6 347.9L46.3 349.3L47.2 353.9L45.3 355.7L42.6 355.8L39.4 358.1L35.7 357.8L30.2 364.6L33.8 366.8L35.5 369.9L36.8 376L39.8 378.7L42.9 380.5L47.6 385.9L52.8999 394.1L59.3999 388L60.8999 384.2L63 381.2L66.3 380.9L69.2 378.3H78.8999L82.2 383.3L84.8 389.1L84.3999 393.1L86.3 396.7L86.2 401.8L89.5 401L92.1 400.7L95.3 399.1L100.4 407.6L99.5 413.2L101.9 416.1L105.3 416.2L107.9 410.6L111.3 411H113.2L114 404.9L113.1 402.2L114.2 400.3L118.8 398.7L115.8 387.6L113 381.9L114 377.2L116.5 376.1L112.8 372.1L113.5 368L111.9 366.4L109.3 367.7L109.9 363.2L112.4 359.7L107.4 353.9L106 350.1L103.3 347L100.9 346.7L98 348.6L94 350.4L90.7 353.4L85.5 352.3L82.2 348.8L80.2 348.4L77 350.2H75L74.3999 345.2V345.2Z" fill="#EBF0F7" stroke="#DDDDDD" stroke-linejoin="round"/>
<path d="M9.8999 335.4L20.8999 335.6L23.8999 333.7L26.0999 333.6L30.5999 330.4L35.7999 333.3L40.9999 333.6L46.2999 330.5L43.8999 326.5L39.8999 328.8L36.0999 328.7L31.3999 325.3L27.5999 325.5L24.7999 328.8L11.5999 329.2L9.8999 335.4V335.4Z" fill="#EBF0F7" stroke="black" stroke-linejoin="round"/>
<path d="M47.8999 343.2L25.5 342.6L22.2 344.2L18.2 343.7L11.7 346L12.4 348.9L16.1 351.9L16 354L18.7 357.9L23.8 358.8L30.2 364.6L35.7 357.8L39.4 358.1L42.6 355.8L45.3 355.7L47.2 353.9L46.3 349.3L47.6 347.9L47.8999 343.2V343.2Z" fill="#EBF0F7" stroke="#DDDDDD" stroke-linejoin="round"/>
<path d="M351.9 486L332 485.7L327.9 501.2L330.1 503.3L334.3 502.5L352 502.7L351.9 486V486Z" fill="#EBF0F7" stroke="#DDDDDD" stroke-linejoin="round"/>
<path d="M725.2 463.1H716.8L711.9 458.4L700.8 464.2L697.3 470L689.1 468.9L686.4 467.3L683.5 467.7L679.7 467.5L664 455.8H655.5L651.3 451.2L651.2 443.5L644.8 441.1L636.7 450.2L629.3 458.5L635.2 468.1L636.7 475.1L642.2 490.9L637.8 501L631.9 510.2L628.4 515.8V516.5L631.3 521.7L630.5 532L674.6 560.2L675.3 568.2L692.6 582L697.6 577.4L700.1 568.2L704.1 562.7L706 552.9L710.6 551.9L713.7 546.1L722.3 540.6L715.1 529.2L714.7 478.8L725.2 463.1V463.1Z" fill="#EBF0F7" stroke="#DDDDDD" stroke-linejoin="round"/>
<path d="M111.3 411L107.9 410.6L105.3 416.2L101.9 416.1L99.5 413.2L100.4 407.6L95.3 399.1L92.1 400.7L89.5 401L83.8 407.5L78.3 415L77.6 419L74.7 423.4L82.8 432.3L93.2 439.9L104.2 450.4L116.8 457L120 456.9L121 445.5L122.1 443.8L121.8 438.3L116.6 432.5L112.8 431.6L109.2 427.8L111.9 421.7L110.7 415L111.3 411V411Z" fill="#EBF0F7" stroke="#DDDDDD" stroke-linejoin="round"/>
<path d="M507.8 80.6L504.7 76.1L493 74.5L489.1 72.1H484.7L480.3 65.9L464.4 63.1L456.5 64.9L448.6 71.4L445.3 78.1L448.7 88.7L443.4 95L437.9 98.6L425 91.7L408.3 86L397.7 83.3L391.6 71L375.9 64.9L366.1 62.6L361.3 63.8L347.5 59L347.2 69.6L341.6 73.6L338.2 78L330.3 83.3L331.8 89L330.9 94.8L325.3 98L329.4 110.2L330.2 116.6L328.4 127.9L329.4 134.2L328 141.8L329.3 150.5L324.7 156.3L331.9 166.4L332.5 172.3L336.8 180L342.3 177.5L351.9 183.9L357.3 192.6L376.3 198.6L383.2 206.1L391.5 201L403.4 193.4L451.8 219.9L500.5 246.4L500.4 240.6H514.2L513.2 212.9L511 162L508.1 112.8L503.9 101.6L506.3 93.1L504.1 87.2L507.8 80.6Z" fill="#EBF0F7" stroke="#DDDDDD" stroke-linejoin="round"/>
<path d="M543.3 939.9L545.8 935.5L552.5 933.3L554.9 928.8L559 922.1L555.2 917.9L550.4 913.7L544.7 916.5L537.9 921.9L531 930.6L539 941.2L543.3 939.9V939.9Z" fill="#EBF0F7" stroke="black" stroke-linejoin="round"/>
<path d="M189.2 30.7L184.2 30.6L172.3 27.5L161.3 28.4L154.5 22.5L146 22.4L142.2 31L134.2 45.5L125.5 51.2L113.7 57.6L106 66.9L104.2 74.2L99.4 86L101.9 103.2L91.8 114.7L85.8 118.4L76.2 127.8L65.2 129.4L59.1001 134.7L58.9 134.9L51 149L42.9 154.1L38.4 162.6L37.9 170L34.5 178.1L30.5 180.3L23.6 189.1L19.2 198.9L19.9 203.5L15.8 210.8L11.1 214.5L10.3 220.9L10.5 221L37.5 219.9L39.1 214.9L44.1 208.7L48.5 189.6L65.4 174.6L71.4 157.2L75.1001 156.1L79.3 145.3L89.3 143.9L93.5 145.7H98.9L102.8 142.5L110.1 142.1L110 134.6H111.8L112 118.3L131.2 108.1L143 106L152.6 102.3L157.2 95.3L171 89.9L171.6 79.7L178.3 78.5L183.7 73.4L198.9 71.1L201.1 65.7L198 62.8L194.1 48.1L193.4 39.7L189.2 30.7V30.7Z" fill="#EBF0F7" stroke="#DDDDDD" stroke-linejoin="round"/>
<path d="M820.9 704.8L818.4 695.7L815.4 689.8L811.5 683.9L807.2 690.1L806.5 698.4L799.4 708L794.3 706.3L795.6 712.3L791.6 719.2L781.2 727.7L773.9 735.6L768.5 735.8L763.9 738.3L757 741.1L751 741.7L748.8 750.4L744.1 758.2L744.3 770.9L746 779.6L748.4 786.2L746.7 795L740.3 805.5L740 810.1L734.3 812.5L731.5 822.5L731.9 832.4L735.3 843.4L735.2 855.7L737.8 863L746.9 868L753.4 871.5L764.3 865.7L774.2 862.4L781 846.3L787.1 827.1L796.4 800.9L803.7 781.8L809.6 765.7L811.2 754L814.7 750.8L816.2 744.9L814.5 734.7L817.1 730.6L820.6 738.7L823 734.6L824.7 728L821.9 721.5L820.9 704.8V704.8Z" fill="#EBF0F7" stroke="#DDDDDD" stroke-linejoin="round"/>
<path d="M265.4 252.3L252.1 253.6L251.9 244.8L246.4 242.6L238.9 238.6L236 232.2L195.6 202L155.6 171.8L137.4 172L142.5 231.7L147.9 291.4L149.9 293.2L147.2 302.8L98.7 303L96.8 306.1L92.2 305.2L85.3 307.9L76.9 304.1L73.1001 304.4L70.9 312.6L66.8 315.1L67.2 323.7L69.5 331.6L74 335.5L75 340.8L74.4 345.2L75 350.2H77L80.2 348.4L82.2 348.8L85.5 352.3L90.7 353.4L94 350.4L98 348.6L100.9 346.7L103.3 347L106 350.1L107.4 353.9L112.4 359.7L109.9 363.2L109.3 367.7L111.9 366.4L113.5 368L112.8 372.1L116.5 376.1L118.1 374.8L121.4 376.9L130.8 377L133.1 373L135.2 373.3L138.7 371.7L140.5 377.6L143.4 375.9L148.4 373.8L147.6 365.8L151 359.9L150.7 355.2L160.4 343.8L162.2 334.3L165.6 330.9L171.4 332.8L176.5 330L178.2 326.4L187.6 320.2L189.9 315.9L201.2 310.1L207.9 308.2L210.9 310.8H218.7L226.4 310.2L230.9 305.3L247.4 304.1L258.1 301.9L259.1 293.4L265.7 284.2L265.4 252.3V252.3Z" fill="#EBF0F7" stroke="#DDDDDD" stroke-linejoin="round"/>
<path d="M706.2 666.2L704.5 660L694.5 668.1L681.1 673.4L673.8 673.2L669.3 677.4L660.9 677.7L657.6 679.5L643.2 675.6L638.5 676.1L635.2 689.2L636.6 705H637.3L641.5 709.4L646.1 719.4L646.4 737.2L641 740.2L636.9 749.8L629.4 741.2L628.9 731.5L631.8 725L631.3 719.5L626.6 716L623.3 717.2L616.5 710.6L579.4 722L580.2 731.9L580.8 737L590.8 736.7L596.3 739.7L598.8 743.1L604.5 744.1L610.6 748.5L609.8 766L607 775.6L606 786L607.7 790.1L606 798.2L604.1 799.5L600.5 809.4L587.1 825.1L591.8 844.6L594.3 854.5L591.3 869.9L592 874.9L593.3 881.1L593.9 887.2L602.9 887.3L604.4 880L601.5 879.1L600.9 873.3L606.4 868.1L621.2 860.6L631.3 856L636.6 851L638.7 845.3L636 842.9L638.4 836.5L639.5 822.9L637.3 823.6L637.4 819.5L635.5 811.4L630.3 800.9L631.9 791L637 787.8L645.9 778L650.6 775.5L665 760.6L679 753.9L690.3 748.6L698.4 740.1L703.6 730.5L707.7 720.6L705.9 713.8L706.3 692.2L705.3 680L706.2 666.2V666.2Z" fill="#EBF0F7" stroke="#DDDDDD" stroke-linejoin="round"/>
<path d="M155.6 171.8L111.5 138.3L111 159.2L72.1 158.5L71.7 193.9L60.5 195.2L57.3999 202.3L59.3 222.3L12.4 222.2L9.69995 226.8L15.8 232.8L18.8 239.3L17.4 246.2L18.7 253.1L19.7 266.8L17.9 279.8L14.4 286.6L15.3 294.1L19.5 289.6L25.5 290.8L31.4 287.8L38.2 287.7L43.9 291.7L51.8 295.4L59 305.6L66.8 315.1L70.8999 312.6L73.1 304.4L76.8999 304.1L85.3 307.9L92.2 305.2L96.8 306.1L98.7 303L147.2 302.8L149.9 293.2L147.9 291.4L142.5 231.7L137.4 172L155.6 171.8Z" fill="#EBF0F7" stroke="#DDDDDD" stroke-linejoin="round"/>
<path d="M632.6 711.7L632.9 706.5L630.2 702.4L630.6 696.4L627.3 686.2L631 678.5L630.8 661.8L626.7 652.9L627.1 651.4L624.8 647.6L612.9 645L618.5 651.2L621.3 662.9L619.1 666.7L616.4 677.9L618.4 689.4L614.4 694.2L610.3 707L616.5 710.6L623.3 717.2L626.6 716L631.3 719.5L631.8 725L628.9 731.5L629.4 741.2L636.9 749.8L641 740.2L646.4 737.2L646.1 719.4L641.5 709.4L637.3 705H636.6L636.7 706.9L639 707.4L641.2 714.8L640.8 716.5L636.7 711.2L634.5 714.6L632.6 711.7V711.7Z" fill="#EBF0F7" stroke="#DDDDDD" stroke-linejoin="round"/>
<path d="M494 759.7L471.6 765.4L442.5 763.4L434.3 756.8L385.5 757.4L383.6 758.4L376.5 752.1L368.7 751.7L361.5 754L355.6 756.7L356.2 767.3L365.7 780.8L368.2 789.5L374.2 806.1L380.1 817.5L384.7 823.2L386 830.8L385.9 847.3L389.3 868.6L391.9 878.7L394.1 892.1L398.4 902.2L406.7 912.7L412.7 905.9L417.2 909.6L418.9 915.6L424.1 916.6L431.4 919.2L437.8 918.2L448.6 911.1L450.8 860L452.2 819.6L464 819.1L465.9 769.8L474.9 769.4L493.6 764.5L498 770.2L505.9 764.8H509.5L516.4 761.7V760.5L511.7 757.4L503.9 756.6L494 759.7V759.7Z" fill="#EBF0F7" stroke="#DDDDDD" stroke-linejoin="round"/>
<path d="M376.3 198.6L357.3 192.6L316.8 219L282.3 246.1L265.4 252.3L265.7 284.2L259.1 293.4L258.1 301.9L247.4 304.1L230.9 305.3L226.4 310.2L218.7 310.8L217.7 317.5L219.3 323.8L226.2 332.8L226.6 339.5L240.6 342.6L240.3 352.1L244.4 348.1L248.7 348L258 356L258.8 343.6L262.3 338.1L263.9 330.1L267.1 327.1L280.1 325.5L292.3 330.6L296.9 335.9L303 336.1L308.8 332.7L323.5 339.8L329.7 339.5L336.8 333.6L343.9 334L347.4 332.1L353.9 332.9L363.3 336.9L372.7 329.2L375.6 329.8L384 344.9L386.2 344.6L386.6 340.2L390 339.4L391.1 332.9L383.3 332.6L383.2 323.7L378.1 318.5L383 300.3L398.2 287.3L398.4 269.3L402.4 241.2L404.9 235.2L399.8 230.5L399.5 226.1L394.9 222.5L391.5 201L383.2 206.1L376.3 198.6V198.6Z" fill="#F2F2F2" stroke="#DDDDDD" stroke-linejoin="round"/>
<path d="M386.2 344.6L384 344.9L375.6 329.8L372.7 329.2L363.3 336.9L353.9 332.9L347.4 332.1L343.9 334L336.8 333.6L329.7 339.5L323.5 339.8L308.8 332.7L303 336.1L296.9 335.9L292.3 330.6L280.1 325.5L267.1 327.1L263.9 330.1L262.3 338.1L258.8 343.6L258 356L257.5 360.6L260.3 368.8L257.9 374.4L259.2 378.1L253.3 386.6L249.6 390.9L247.3 399.6L247.6 408.4L247 430.7H257.7L266.9 430.6L275.5 439.7L279.6 449.7L286.1 458.3L295.9 458.6L300.6 455.5L305.2 456.3L317.9 451.3L321 441.5L326.7 428.1L330.3 428L337.5 419.9L342.1 419.7L349 425.4L357.3 420.7L358.4 415L361.1 409.4L363 402.4L369.4 396.7L371.8 387L374.4 383.9L376 376.7L379.1 367.9L389.3 357.2L389.8 352.6L391.1 350.1L386.2 344.6V344.6Z" fill="#EFF3FA" stroke="#D4E1E2" stroke-linejoin="round"/>
<path d="M585.9 533L578.5 537.3L575.6 535.9L572.1 539.7L571.6 548L569.9 549L568.7 556.6L576.1 557.7L579.9 549.8L586.4 550.7L589.9 548.9L590.7 540.8L585.9 533V533Z" fill="#F2F2F2" stroke="#DDDDDD" stroke-linejoin="round"/>
<path d="M111.8 134.6H110L110.1 142.1L102.8 142.5L98.8999 145.7H93.5L89.3 143.9L79.3 145.3L75.1 156.1L71.3999 157.2L65.3999 174.6L48.5 189.6L44.1 208.7L39.1 214.9L37.5 219.9L10.5 221L10.3 220.9L9.69995 226.8L12.4 222.2L59.3 222.3L57.3999 202.3L60.5 195.2L71.7 193.9L72.1 158.5L111 159.2L111.5 138.3L111.8 135.6V134.6V134.6Z" fill="#F2F2F2" stroke="#DDDDDD" stroke-linejoin="round"/>
<path d="M658 291.9L658.7 282.7L662.3 278.5L671.1 276.2L676.8 268.3L669.9 263.2L665.1 259.8L659.8 243.3L657.3 229L659.8 226.5L655.1 212.9H607.7H561.3H513.2L514.2 240.6H500.4L500.5 246.4L502.9 301.3L492.4 300.4L487.2 310.6L484.2 319.1L486.8 322.3L483 326.6L484.5 332.3L481.5 338.1L480.3 343.1L484.6 342.3L487.2 347.7L487.5 355.7L492.1 359.8L492 363.2L493.5 369.1L500.7 377.7L500.8 383.4L498.9 389.1L499.8 393.4L504 397.4L505 398.1L508.8 396.5L512.9 393.9L515.8 381.6L519 375.2L527.8 373.3L529.9 377.1L536.4 385.1L539.7 386.3L544.1 384L552.8 384.4L554.6 387.3H566.7L567 384.4L573.3 381.8L574.4 377.8L579 374.9L589.4 383L595.6 381.6L601.4 371.6L607.9 364L606.6 355.7L603.6 351.7L610.9 350.9L611.6 347.9L617.3 348.8L616.1 359L617.8 369L624.3 374.5L625.8 379.2V386.1L627.5 386.4L627.4 384.7L630.7 370.2L636.3 366.4L637.4 360.7L642.2 350.1L649.3 343.3L653.8 329.7L655.2 317.8L653.7 312.2L658 291.9Z" fill="#F2F2F2" stroke="#DDDDDD" stroke-linejoin="round"/>
<path d="M625.8 379.2L624.3 374.5L617.8 369L616.1 359L617.3 348.8L611.6 347.9L610.9 350.9L603.6 351.7L606.6 355.7L607.9 364L601.4 371.6L595.6 381.6L589.4 383L579 374.9L574.4 377.8L573.3 381.8L567 384.4L566.7 387.3H554.6L552.8 384.4L544.1 384L539.7 386.3L536.4 385.1L529.9 377.1L527.8 373.3L519 375.2L515.8 381.6L512.9 393.9L508.8 396.5L505 398.1L513.4 403.5L520.2 409L520.3 413.5L528.6 420.7L533.8 426.7L537 435L546.2 440.5L548.2 444.9L555.7 456.3L561.2 458L564.4 455.7L570.1 456.6L576.9 453.7L579.8 459.6L590.7 468.8L595.7 465L603.5 468.1L613.3 464.8L621.9 464.9L629.3 458.5L636.7 450.2L644.8 441.1L637.4 426.1L631.7 422.9L629.5 417.3L623.2 410.6L615.7 409.6L619.7 401.7L626.1 401.4L627.9 397.2L627.5 386.4L625.8 386.1V379.2V379.2Z" fill="#F2F2F2" stroke="#DDDDDD" stroke-linejoin="round"/>
<path d="M66.8 315.1L59 305.6L51.8 295.4L43.9 291.7L38.2 287.7L31.4 287.8L25.5 290.8L19.5 289.6L15.3 294.1L12.3 301.2L6.20004 310.9L0.800049 313.5L6.80005 318.4L11.6 329.2L24.8 328.8L27.6 325.5L31.4 325.3L36.1 328.7L39.9 328.8L43.9 326.5L46.3 330.5L41 333.6L35.8 333.3L30.6 330.4L26.1 333.6L23.9 333.7L20.9 335.6L9.90005 335.4L11.7 346L18.2 343.7L22.2 344.2L25.5 342.6L47.9 343.2L53.7 343.3L62.4 346.7L65.1001 346.4L66 344.8L72.6001 345.9L74.4 345.2L75 340.8L74 335.5L69.5 331.6L67.2 323.7L66.8 315.1V315.1Z" fill="#F2F2F2" stroke="#DDDDDD" stroke-linejoin="round"/>
<path d="M89.4999 401L86.1999 401.8L86.2999 396.7L84.3999 393.1L84.7999 389.1L82.1999 383.3L78.8999 378.3H69.1999L66.2999 380.9L62.9999 381.2L60.8999 384.2L59.3999 388L52.8999 394.1L54.2999 404.4L56.3999 409.4L62.6999 416.8L71.3999 422.4L74.6999 423.4L77.5999 419L78.2999 415L83.7999 407.5L89.4999 401V401Z" fill="#F2F2F2" stroke="#DDDDDD" stroke-linejoin="round"/>
<path d="M592 874.9L586.2 872.3L582.7 873.3L581.3 877.3L577.7 882.5L577.5 887.3L584.1 894.8L591.1 893.3L593.9 887.2L593.3 881.1L592 874.9V874.9Z" fill="#F2F2F2" stroke="#DDDDDD" stroke-linejoin="round"/>
<path d="M500.5 246.4L451.8 219.9L403.4 193.4L391.5 201L394.9 222.5L399.5 226.1L399.8 230.5L404.9 235.2L402.4 241.2L398.4 269.3L398.2 287.3L383 300.3L378.1 318.5L383.2 323.7L383.3 332.6L391.1 332.9L390 339.4L394.9 348.3L395.9 357.4L395.5 366.6L402.3 379.2L395.5 379.1L392.1 380L386.5 378.7L384 385.2L391.2 393.3L396.5 395.6L398.3 401.3L402.2 410.9L400.4 414.6L410.4 413.6L412.6 410L414.7 410.3L417.7 413.4L433 408.1L438.1 402.7L444.4 397.9L443.2 393L446.6 391.8L458.4 392.6L469.7 386.2L478.3 371.1L484.3 365.5L492 363.2L492.1 359.8L487.5 355.7L487.2 347.7L484.6 342.3L480.3 343.1L481.5 338.1L484.5 332.3L483 326.6L486.8 322.3L484.2 319.1L487.2 310.6L492.4 300.4L502.9 301.3L500.5 246.4V246.4Z" fill="#F2F2F2" stroke="#DDDDDD" stroke-linejoin="round"/>
<path d="M225.1 365.2L214.4 364.9L213.5 369.2L218.6 376.3V386.4L219.8 397.3L222.8 402.3L220.1 414.8L221.1 421.6L224.3 430.4L227.1 435.3L236.9 432.3L233.9 422.8L234.4 391L231.9 388.2L231.5 381.4L227.2 376.5L223.5 372.4L225.1 365.2V365.2Z" fill="#F2F2F2" stroke="#DDDDDD" stroke-linejoin="round"/>
<path d="M347.5 59L343 56.8L339.8 50.2L333.8 50L331.4 42.4L338.7 35.4L339.8 23.3L335.7 19.8L335.5 13.3L341 6.3L340.1 3.6L330.6 8.8L330.7 1.7L322.6 0L310.4 5.7L308.2 12.9L310.5 26.3L308.1 37.9L301.1 45.7L302.4 56.1L312.1 64.4L312.3 67.7L319.6 73.3L325.3 98L330.9 94.8L331.8 89L330.3 83.3L338.2 78L341.6 73.6L347.2 69.6L347.5 59V59Z" fill="#F2F2F2" stroke="#DDDDDD" stroke-linejoin="round"/>
<path d="M590.2 531.3L585.9 533L590.7 540.8L589.9 548.9L586.4 550.7L587 556.1L589.6 559.3L589.7 563.8L586.7 566.7L581.8 573.9L577.3 578.9L576.1 579.1L575.4 585L577.7 587L577.2 592.9L579.5 598.4L576.6 603.7L586.3 613.1L587.1 621.6L593 635.8L593.6 636.2L598.4 638.5L606.1 640.9L612.9 645L624.8 647.6L627.1 651.4L627.9 648.7L634.1 656.1L634.7 670.6L638.6 675.9L638.5 676.1L643.2 675.6L657.6 679.5L660.9 677.7L669.3 677.4L673.8 673.2L681.1 673.4L694.5 668.1L704.5 660L700.1 657L695.4 643.4L691.4 634.7L692.4 628.1L691.8 623.9L695.3 615.5L695 611.9L687.3 606.9L686.7 599.1L692.6 582L675.3 568.2L674.6 560.2L630.5 532L624.5 538.1L620.4 544.4L625.2 549.1L618.2 552.5L616.7 550.9L609.6 551.8L604.1 554.9L600.8 549.5L603.1 539.8L603.6 531.5L590.2 531.3V531.3Z" fill="#F2F2F2" stroke="#DDDDDD" stroke-linejoin="round"/>
<path d="M629.3 458.5L621.9 464.9L613.3 464.8L603.5 468.1L595.7 465L590.7 468.8L590.1 484.9L595 486.8L591.1 491.7L586.4 495.4L581.8 502.6L579.2 509L578.6 520.1L575.7 525.4L575.6 535.9L578.5 537.3L585.9 533L590.2 531.3L603.6 531.5L602.9 526.2L608.6 518.1L616.3 516.1L621.5 512.8L627.8 515.5L628.4 516.5V515.8L631.9 510.2L637.8 501L642.2 490.9L636.7 475.1L635.2 468.1L629.3 458.5V458.5Z" fill="#F2F2F2" stroke="#DDDDDD" stroke-linejoin="round"/>
<path d="M440.3 999L445.6 998.7L453.1 993.4L463.1 991.2L475.4 985.7L480.1 986.4L487.3 984.7L499.6 987.4L505.5 984.8L512.4 986.8L514.2 983L520.2 982.2L532.8 976.9L542.1 970.6L551 962.3L565.4 948.1L572.9 938.2L576.8 931.1L582.3 924.1L584.8 922.1L593.4 915.1L596.9 908.9L599.2 897.4L602.9 887.3L593.9 887.2L591.1 893.3L584.1 894.8L577.5 887.3L577.7 882.5L581.3 877.3L582.7 873.3L586.2 872.3L592 874.9L591.3 869.9L594.3 854.5L591.8 844.6L587.1 825.1L580.8 823.8L576.7 825.4L571 823.1L566.1 822.9L548.8 833.1L537.6 843.4L533.2 852.7L529.3 857.9L522.8 859L520.4 865.6L519 869.9L511.2 873.1L501.6 872.5L496.1 868.6L491.2 866.9L485.2 870.1L482 876.7L476.2 880.9L470 887.1L461.5 888.5L459 883.6L460.5 875.2L454 862L450.8 860L448.6 911.1L437.8 918.2L431.4 919.2L424.1 916.6L418.9 915.6L417.2 909.6L412.7 905.9L406.7 912.7L414.4 930.6V930.7L419.8 942.4L426.7 955.2L426.5 965.8L422.6 968.3L425.8 977.6L425.3 985.7L426.6 989.5L427.3 987.6L431.9 993.8L435.7 994L440.3 999V999ZM543.3 939.9L539 941.2L531 930.6L537.9 921.9L544.7 916.5L550.4 913.7L555.2 917.9L559 922.1L554.9 928.8L552.5 933.3L545.8 935.5L543.3 939.9V939.9Z" fill="#F5f5fa" stroke="#DDDDDD" stroke-linejoin="round"/>
<path d="M589.3 636L585.2 634.9L585.9 631.9L583.8 631.3L567.4 633.6L564.1 635.3L560.5 644.1L563.1 650.2L560.6 666.6L558.7 680.5L561.9 682.9L570.3 688.3L573.7 685.8L574.3 700.7L565 700.6L560.2 693L555.9 687.1L546.7 685.2L544.1 677.9L536.6 682.3L526.9 680.3L523 674.1L515.3 672.8L509.6 673.1L509 668.8L504.8 668.5L506 672.8L504.5 679.5L506.5 686L504.5 691.2L505.5 695.9L480.2 695.8L478.6 739.8L486.4 751.1L494 759.7L503.9 756.6L511.7 757.4L516.4 760.5V761.7L518.6 762.7L532 764.2L535.8 765.8L539.9 765.5L546.9 756.5L557.8 745.1L562.2 744.1L563.9 739.3L570.9 733.8L580.2 731.9L579.4 722L616.5 710.6L610.3 707L614.4 694.2L618.4 689.4L616.4 677.9L619.1 666.7L621.3 662.9L618.5 651.2L612.9 645L606.1 640.9L598.4 638.5L593.6 636.2L593 635.8L593.9 638.1L591.9 638.9L589.3 636V636Z" fill="#F5f5fa" stroke="#eee" stroke-linejoin="round"/>
<path d="M587.1 825.1L600.5 809.4L604.1 799.5L606 798.2L607.7 790.1L606 786L607 775.6L609.8 766L610.6 748.5L604.5 744.1L598.8 743.1L596.3 739.7L590.8 736.7L580.8 737L580.2 731.9L570.9 733.8L563.9 739.3L562.2 744.1L557.8 745.1L546.9 756.5L539.9 765.5L535.8 765.8L532 764.2L518.6 762.7L522.8 773.8L525.1 776.2L528.6 784.2L541.6 799.4L546.7 800.9L546.5 805.8L549.6 814.6L558.8 816.7L566.1 822.9L571 823.1L576.7 825.4L580.8 823.8L587.1 825.1V825.1Z" fill="#F5f5fa" stroke="#eee" stroke-linejoin="round"/>
<path d="M750.6 372.8L744.9 367L742.4 361.3L738.3 358.7L734.1 366.1L731.6 371L736.4 378.7L741 385.3L745.8 390.3L786.1 406.7L796.4 406.6L762.9 448.1L747 448.7L736.3 458.5L728.5 458.7L725.2 463.1L714.7 478.8L715.1 529.2L722.3 540.6L725 537.3L727.9 530L741.3 513.3L752.7 502.7L770.8 489L782.9 477.8L797 458.9L807.1 443.4L817.1 423.2L824.1 405.5L829.5 390L832.4 375.1L834.8 370.1L834.4 362.8L835.2 354.8L834.7 350.9L830.1 351L824.6 355.7L818.2 357.1L812.7 359.2L808.8 359.4L801.9 359.9L797.7 362.5L791.7 363.4L781.2 367.7L768 369.3L756.7 372.8H750.6V372.8Z" fill="#F5f5fa" stroke="#eee" stroke-linejoin="round"/>
<path d="M303.5 365C299.358 365 296 368.713 296 373.293C296 374.825 296.271 376.407 297.049 377.547L303.5 387L309.951 377.547C310.658 376.511 311 374.68 311 373.293C311 368.713 307.642 365 303.5 365ZM303.5 369.803C305.243 369.803 306.656 371.366 306.656 373.293C306.656 375.22 305.243 376.783 303.5 376.783C301.757 376.783 300.344 375.22 300.344 373.293C300.344 371.366 301.757 369.803 303.5 369.803Z" fill="#f5f5fa"/>
</svg>
