<svg width="50" height="50" viewBox="0 0 40 40" fill="none" xmlns="http://www.w3.org/2000/svg">
<path d="M22.0001 9.33325C21.6322 9.33325 21.3335 9.63192 21.3335 9.99989V13.9999C21.3335 14.3679 21.6322 14.6665 22.0001 14.6665H24.6668C25.0348 14.6665 25.3334 14.3679 25.3334 13.9999V9.99989C25.3334 9.63192 25.0348 9.33325 24.6668 9.33325H22.0001ZM24.0001 13.3333H22.6668V10.6666H24.0001V13.3333Z" fill="#1f65e6"/>
<path d="M4.66656 17.3334C5.03453 17.3334 5.33321 17.0347 5.33321 16.6667V6.66672H34.6666V16.6667C34.6666 17.0347 34.9653 17.3334 35.3333 17.3334C35.7012 17.3334 35.9999 17.0347 35.9999 16.6667V6C35.9999 5.63203 35.7012 5.33336 35.3333 5.33336H20V1.33336H23.3333V2.66672H21.3333C20.9653 2.66672 20.6667 2.96539 20.6667 3.33336C20.6667 3.70133 20.9653 4 21.3333 4H24C24.3679 4 24.6666 3.70133 24.6666 3.33336V0.666641C24.6666 0.298672 24.3679 0 24 0H19.3333C18.9653 0 18.6667 0.298672 18.6667 0.666641V5.33328H4.66664C4.29867 5.33328 4 5.63195 4 5.99992V16.6666C3.99992 17.0347 4.29859 17.3334 4.66656 17.3334Z" fill="#1f65e6"/>
<path d="M28.6666 9.33325C28.2987 9.33325 28 9.63192 28 9.99989V13.9999C28 14.3679 28.2987 14.6665 28.6666 14.6665H31.3333C31.7013 14.6665 31.9999 14.3679 31.9999 13.9999V9.99989C31.9999 9.63192 31.7013 9.33325 31.3333 9.33325H28.6666ZM30.6666 13.3333H29.3333V10.6666H30.6666V13.3333Z" fill="#1f65e6"/>
<path d="M39.3334 38.6667H0.666642C0.298672 38.6667 0 38.9654 0 39.3334C0 39.7014 0.298672 40.0001 0.666642 40.0001H39.3334C39.7013 40.0001 40 39.7014 40 39.3335C40 38.9655 39.7014 38.6667 39.3334 38.6667Z" fill="#1f65e6"/>
<path d="M24.6669 34.6667C25.0349 34.6667 25.3336 34.3681 25.3336 34.0001V24.6667C25.3336 24.4901 25.2636 24.3201 25.1383 24.1954C25.0756 24.1328 23.5683 22.6667 20.0003 22.6667C16.4323 22.6667 14.925 24.1328 14.8623 24.1954C14.737 24.3201 14.667 24.4901 14.667 24.6667V34.0001C14.667 34.3681 14.9657 34.6667 15.3336 34.6667C15.7016 34.6667 16.0003 34.3681 16.0003 34.0001V24.9894C16.4082 24.7094 17.465 24.1394 19.3336 24.0247V30.6667C18.9657 30.6667 18.667 30.9654 18.667 31.3334C18.667 31.7014 18.9657 32 19.3336 32V34C19.3336 34.368 19.6323 34.6667 20.0003 34.6667C20.3683 34.6667 20.6669 34.368 20.6669 34V32C21.0349 32 21.3336 31.7014 21.3336 31.3334C21.3336 30.9654 21.0349 30.6667 20.6669 30.6667V24.0247C22.5396 24.14 23.5962 24.7114 24.0003 24.9887V34.0001C24.0003 34.3681 24.299 34.6667 24.6669 34.6667Z" fill="#1f65e6"/>
<path d="M12 36.6666C12 37.0346 12.2987 37.3333 12.6666 37.3333H27.3333C27.7013 37.3333 28 37.0346 28 36.6666C28 36.2987 27.7013 36 27.3333 36H12.6666C12.2987 36 12 36.2987 12 36.6666Z" fill="#1f65e6"/>
<path d="M3.33363 36C2.96566 36 2.66699 36.2987 2.66699 36.6667C2.66699 37.0346 2.96566 37.3333 3.33363 37.3333H10.0003C10.3683 37.3333 10.6669 37.0346 10.6669 36.6667C10.6669 36.2987 10.3683 36 10.0003 36H9.33365V20H30.667V36H30.0003C29.6324 36 29.3337 36.2987 29.3337 36.6667C29.3337 37.0346 29.6324 37.3333 30.0003 37.3333H36.667C37.0349 37.3333 37.3336 37.0346 37.3336 36.6667C37.3336 36.2987 37.0349 36 36.667 36H36.0003V20H36.667C37.0349 20 37.3336 19.7014 37.3336 19.3334C37.3336 18.9654 37.0349 18.6667 36.667 18.6667H3.33363C2.96566 18.6667 2.66699 18.9654 2.66699 19.3334C2.66699 19.7014 2.96559 20 3.33363 20H4.00028V36H3.33363ZM32.0003 20H34.667V36H32.0003V20ZM5.33364 20H8.00028V36H5.33364V20Z" fill="#1f65e6"/>
<path d="M8.66664 9.33325C8.29867 9.33325 8 9.63192 8 9.99989V13.9999C8 14.3679 8.29867 14.6665 8.66664 14.6665H11.3333C11.7013 14.6665 11.9999 14.3679 11.9999 13.9999V9.99989C11.9999 9.63192 11.7013 9.33325 11.3333 9.33325H8.66664ZM10.6666 13.3333H9.33328V10.6666H10.6666V13.3333Z" fill="#1f65e6"/>
<path d="M15.3336 9.33325C14.9657 9.33325 14.667 9.63192 14.667 9.99989V13.9999C14.667 14.3679 14.9657 14.6665 15.3336 14.6665H18.0003C18.3682 14.6665 18.6669 14.3679 18.6669 13.9999V9.99989C18.6669 9.63192 18.3682 9.33325 18.0003 9.33325H15.3336ZM17.3336 13.3333H16.0003V10.6666H17.3336V13.3333V13.3333Z" fill="#1f65e6"/>
</svg>
