<svg width="1107" height="210" viewBox="0 0 1107 210" fill="none" xmlns="http://www.w3.org/2000/svg">
<path d="M77.568 209.88C61.824 209.88 48.096 207.384 36.384 202.392C24.864 197.4 16.032 190.872 9.888 182.808C3.936 174.552 0.768 165.72 0.384 156.312C0.384 154.776 0.960001 153.432 2.112 152.28C3.264 151.128 4.704 150.552 6.432 150.552H20.544C24 150.552 26.4 152.472 27.744 156.312C29.472 164.376 34.368 171.384 42.432 177.336C50.688 183.096 62.4 185.976 77.568 185.976C93.888 185.976 106.08 183.096 114.144 177.336C122.208 171.576 126.24 163.608 126.24 153.432C126.24 146.904 124.224 141.528 120.192 137.304C116.352 133.08 110.496 129.432 102.624 126.36C94.944 123.096 83.328 119.16 67.776 114.552C52.992 110.328 41.184 105.816 32.352 101.016C23.712 96.216 17.184 90.36 12.768 83.448C8.352 76.344 6.144 67.416 6.144 56.664C6.144 46.296 8.928 37.08 14.496 29.016C20.064 20.76 28.128 14.328 38.688 9.71998C49.248 4.91999 61.728 2.51999 76.128 2.51999C91.104 2.51999 103.872 5.20799 114.432 10.584C125.184 15.768 133.344 22.392 138.912 30.456C144.48 38.328 147.456 46.296 147.84 54.36C147.84 56.088 147.264 57.528 146.112 58.68C144.96 59.832 143.52 60.408 141.792 60.408H127.392C125.856 60.408 124.416 59.928 123.072 58.968C121.728 58.008 120.768 56.568 120.192 54.648C119.04 46.392 114.432 39.576 106.368 34.2C98.304 28.824 88.224 26.136 76.128 26.136C63.072 26.136 52.704 28.728 45.024 33.912C37.344 38.904 33.504 46.392 33.504 56.376C33.504 63.096 35.232 68.568 38.688 72.792C42.336 77.016 47.808 80.76 55.104 84.024C62.592 87.288 73.44 91.032 87.648 95.256C103.968 99.864 116.736 104.472 125.952 109.08C135.36 113.688 142.368 119.448 146.976 126.36C151.584 133.08 153.888 141.816 153.888 152.568C153.888 170.616 146.976 184.728 133.152 194.904C119.52 204.888 100.992 209.88 77.568 209.88ZM248.098 209.88C227.554 209.88 211.522 204.12 200.002 192.6C188.482 180.888 182.434 164.568 181.858 143.64L181.57 132.12L181.858 120.6C182.434 99.672 188.482 83.448 200.002 71.928C211.522 60.216 227.554 54.36 248.098 54.36C261.922 54.36 273.538 56.856 282.946 61.848C292.546 66.648 299.65 72.696 304.258 79.992C309.058 87.288 311.65 94.584 312.034 101.88C312.226 103.608 311.554 105.144 310.018 106.488C308.674 107.832 307.138 108.504 305.41 108.504H292.738C290.818 108.504 289.378 108.12 288.418 107.352C287.458 106.392 286.498 104.76 285.538 102.456C282.082 93.048 277.282 86.424 271.138 82.584C265.186 78.552 257.602 76.536 248.386 76.536C236.29 76.536 226.69 80.28 219.586 87.768C212.482 95.256 208.642 106.68 208.066 122.04L207.778 132.12L208.066 142.2C208.642 157.56 212.482 168.984 219.586 176.472C226.69 183.96 236.29 187.704 248.386 187.704C257.794 187.704 265.474 185.784 271.426 181.944C277.378 177.912 282.082 171.192 285.538 161.784C286.498 159.48 287.458 157.944 288.418 157.176C289.378 156.216 290.818 155.736 292.738 155.736H305.41C307.138 155.736 308.674 156.408 310.018 157.752C311.554 159.096 312.226 160.632 312.034 162.36C311.65 169.464 309.058 176.664 304.258 183.96C299.65 191.256 292.546 197.4 282.946 202.392C273.538 207.384 261.922 209.88 248.098 209.88ZM353.45 207C351.53 207 349.898 206.424 348.554 205.272C347.402 203.928 346.826 202.296 346.826 200.376V9.14399C346.826 7.03199 347.402 5.39999 348.554 4.24798C349.898 3.09599 351.53 2.51999 353.45 2.51999H366.698C368.81 2.51999 370.442 3.09599 371.594 4.24798C372.746 5.39999 373.322 7.03199 373.322 9.14399V76.248C378.89 69.144 385.418 63.768 392.906 60.12C400.586 56.28 409.994 54.36 421.13 54.36C439.562 54.36 453.866 60.312 464.042 72.216C474.41 83.928 479.594 99.48 479.594 118.872V200.376C479.594 202.296 478.922 203.928 477.578 205.272C476.426 206.424 474.89 207 472.969 207H459.434C457.514 207 455.882 206.424 454.538 205.272C453.386 203.928 452.81 202.296 452.81 200.376V120.6C452.81 106.776 449.45 96.024 442.73 88.344C436.01 80.664 426.314 76.824 413.642 76.824C401.354 76.824 391.562 80.76 384.266 88.632C376.97 96.312 373.322 106.968 373.322 120.6V200.376C373.322 202.296 372.65 203.928 371.306 205.272C370.154 206.424 368.618 207 366.698 207H353.45ZM582.243 209.88C561.123 209.88 544.803 203.928 533.283 192.024C521.955 180.12 515.907 164.28 515.139 144.504L514.851 132.12L515.139 119.736C515.907 99.96 522.051 84.12 533.571 72.216C545.283 60.312 561.507 54.36 582.243 54.36C602.979 54.36 619.107 60.312 630.627 72.216C642.339 84.12 648.579 99.96 649.347 119.736C649.731 123.96 649.923 128.088 649.923 132.12C649.923 136.152 649.731 140.28 649.347 144.504C648.579 164.28 642.435 180.12 630.915 192.024C619.587 203.928 603.363 209.88 582.243 209.88ZM582.243 188.28C594.531 188.28 604.227 184.44 611.331 176.76C618.627 168.888 622.563 157.656 623.139 143.064C623.331 141.144 623.427 137.496 623.427 132.12C623.427 126.744 623.331 123.096 623.139 121.176C622.563 106.584 618.627 95.448 611.331 87.768C604.227 79.896 594.531 75.96 582.243 75.96C569.955 75.96 560.163 79.896 552.867 87.768C545.763 95.448 541.923 106.584 541.347 121.176L541.059 132.12L541.347 143.064C541.923 157.656 545.763 168.888 552.867 176.76C560.163 184.44 569.955 188.28 582.243 188.28ZM747.056 209.88C725.936 209.88 709.616 203.928 698.096 192.024C686.768 180.12 680.72 164.28 679.952 144.504L679.664 132.12L679.952 119.736C680.72 99.96 686.864 84.12 698.384 72.216C710.096 60.312 726.32 54.36 747.056 54.36C767.792 54.36 783.92 60.312 795.44 72.216C807.152 84.12 813.392 99.96 814.16 119.736C814.544 123.96 814.736 128.088 814.736 132.12C814.736 136.152 814.544 140.28 814.16 144.504C813.392 164.28 807.248 180.12 795.728 192.024C784.4 203.928 768.176 209.88 747.056 209.88ZM747.056 188.28C759.344 188.28 769.04 184.44 776.144 176.76C783.44 168.888 787.376 157.656 787.952 143.064C788.144 141.144 788.24 137.496 788.24 132.12C788.24 126.744 788.144 123.096 787.952 121.176C787.376 106.584 783.44 95.448 776.144 87.768C769.04 79.896 759.344 75.96 747.056 75.96C734.768 75.96 724.976 79.896 717.68 87.768C710.576 95.448 706.736 106.584 706.16 121.176L705.872 132.12L706.16 143.064C706.736 157.656 710.576 168.888 717.68 176.76C724.976 184.44 734.768 188.28 747.056 188.28ZM858.012 207C856.092 207 854.46 206.424 853.116 205.272C851.964 203.928 851.388 202.296 851.388 200.376V9.14399C851.388 7.03199 851.964 5.39999 853.116 4.24798C854.46 3.09599 856.092 2.51999 858.012 2.51999H870.684C872.604 2.51999 874.14 3.19199 875.292 4.536C876.636 5.68799 877.308 7.22399 877.308 9.14399V200.376C877.308 202.296 876.636 203.928 875.292 205.272C874.14 206.424 872.604 207 870.684 207H858.012ZM924.889 29.016C922.969 29.016 921.337 28.44 919.993 27.288C918.841 25.944 918.265 24.312 918.265 22.392V7.41599C918.265 5.496 918.841 3.86399 919.993 2.51999C921.337 1.17599 922.969 0.503998 924.889 0.503998H941.881C943.801 0.503998 945.433 1.17599 946.777 2.51999C948.121 3.86399 948.793 5.496 948.793 7.41599V22.392C948.793 24.312 948.121 25.944 946.777 27.288C945.433 28.44 943.801 29.016 941.881 29.016H924.889ZM927.193 207C925.273 207 923.641 206.424 922.297 205.272C921.145 203.928 920.569 202.296 920.569 200.376V63.864C920.569 61.944 921.145 60.408 922.297 59.256C923.641 57.912 925.273 57.24 927.193 57.24H939.865C941.785 57.24 943.321 57.912 944.473 59.256C945.817 60.408 946.489 61.944 946.489 63.864V200.376C946.489 202.296 945.817 203.928 944.473 205.272C943.321 206.424 941.785 207 939.865 207H927.193ZM1031.23 209.88C1021.82 209.88 1013.08 207.96 1005.02 204.12C997.148 200.28 990.812 195.096 986.012 188.568C981.404 181.848 979.1 174.456 979.1 166.392C979.1 153.72 984.284 143.352 994.652 135.288C1005.02 127.224 1019.13 121.848 1036.99 119.16L1080.19 113.112V104.76C1080.19 84.984 1068.76 75.096 1045.92 75.096C1037.08 75.096 1029.98 76.92 1024.6 80.568C1019.23 84.024 1015.29 88.152 1012.8 92.952C1012.03 94.872 1011.16 96.216 1010.2 96.984C1009.44 97.56 1008.28 97.848 1006.75 97.848H995.516C993.788 97.848 992.252 97.272 990.908 96.12C989.756 94.776 989.18 93.24 989.18 91.512C989.18 87.096 991.196 82.008 995.228 76.248C999.452 70.296 1005.88 65.208 1014.52 60.984C1023.16 56.568 1033.72 54.36 1046.2 54.36C1067.71 54.36 1083.07 59.352 1092.28 69.336C1101.69 79.32 1106.4 91.8 1106.4 106.776V200.376C1106.4 202.296 1105.72 203.928 1104.38 205.272C1103.23 206.424 1101.69 207 1099.77 207H1087.1C1085.18 207 1083.64 206.424 1082.49 205.272C1081.34 203.928 1080.76 202.296 1080.76 200.376V187.704C1076.54 194.04 1070.4 199.32 1062.33 203.544C1054.27 207.768 1043.9 209.88 1031.23 209.88ZM1036.99 188.856C1049.66 188.856 1060.03 184.728 1068.09 176.472C1076.16 168.216 1080.19 156.216 1080.19 140.472V132.408L1046.49 137.304C1032.67 139.224 1022.2 142.488 1015.1 147.096C1008 151.704 1004.44 157.464 1004.44 164.376C1004.44 172.248 1007.61 178.296 1013.95 182.52C1020.48 186.744 1028.16 188.856 1036.99 188.856Z" fill="black"/>
</svg>
