<svg width="50" height="50" viewBox="0 0 40 40" fill="none" xmlns="http://www.w3.org/2000/svg">
<path d="M14.6665 24.6666C14.6665 25.0346 14.9652 25.3333 15.3331 25.3333H17.9999C18.3678 25.3333 18.6665 25.0346 18.6665 24.6666V20.6666C18.6665 20.2987 18.3678 20 17.9999 20H15.3332C14.9653 20 14.6666 20.2987 14.6666 20.6666V24.6666H14.6665ZM15.9999 21.3334H17.3332V24H15.9999V21.3334Z" fill=" #C84D34"/>
<path d="M15.3334 17.3333H18C18.368 17.3333 18.6667 17.0346 18.6667 16.6666V12.6666C18.6667 12.2987 18.368 12 18 12H15.3334C14.9654 12 14.6667 12.2987 14.6667 12.6666V16.6666C14.6667 17.0346 14.9653 17.3333 15.3334 17.3333ZM16 13.3333H17.3334V15.9999H16V13.3333Z" fill=" #C84D34"/>
<path d="M10.3436 12.5713L20.0002 6.77734L29.6568 12.5713C29.7642 12.636 29.8829 12.6666 29.9995 12.6666C30.2261 12.6666 30.4468 12.5513 30.5715 12.3433C30.7615 12.0273 30.6589 11.618 30.3436 11.4286L20.6668 5.62266V1.33336H24.0002V2.66672H22.0002C21.6322 2.66672 21.3336 2.96539 21.3336 3.33336C21.3336 3.70133 21.6322 4 22.0002 4H24.6668C25.0348 4 25.3335 3.70133 25.3335 3.33336V0.666641C25.3335 0.298672 25.0348 0 24.6668 0H20.0002C19.6322 0 19.3336 0.298672 19.3336 0.666641V5.62266L9.65692 11.4287C9.3416 11.618 9.23895 12.0273 9.42895 12.3434C9.61754 12.6587 10.0282 12.7613 10.3436 12.5713Z" fill=" #C84D34"/>
<path d="M7.33336 25.3333C7.70133 25.3333 8 25.0346 8 24.6666V20.6666C8 20.2987 7.70133 20 7.33336 20H4.66664C4.29867 20 4 20.2987 4 20.6666V21.9999C4 22.3679 4.29867 22.6666 4.66664 22.6666C5.03461 22.6666 5.33328 22.3679 5.33328 21.9999V21.3333H6.66664V24.6666C6.66664 25.0346 6.96531 25.3333 7.33336 25.3333Z" fill=" #C84D34"/>
<path d="M12 34V14.6666C12 14.2987 11.7014 14 11.3334 14C10.9654 14 10.6667 14.2987 10.6667 14.6666V34C10.6667 34.368 10.9654 34.6666 11.3334 34.6666C11.7014 34.6666 12 34.368 12 34Z" fill=" #C84D34"/>
<path d="M8.66664 37.3334H31.3333C31.7013 37.3334 31.9999 37.0348 31.9999 36.6668C31.9999 36.2988 31.7013 36.0002 31.3333 36.0002H25.3333V29.3335H25.9999C26.3679 29.3335 26.6666 29.0349 26.6666 28.6669C26.6666 28.2989 26.3679 28.0002 25.9999 28.0002H14C13.632 28.0002 13.3334 28.2989 13.3334 28.6669C13.3334 29.0349 13.632 29.3335 14 29.3335H14.6666V36.0001H8.66664C8.29867 36.0001 8 36.2988 8 36.6667C8 37.0347 8.29867 37.3334 8.66664 37.3334ZM20.6666 33.3334C21.0346 33.3334 21.3333 33.0348 21.3333 32.6668C21.3333 32.2988 21.0346 32.0002 20.6666 32.0002V29.3335H24V36.0001H20.6666V33.3334ZM16 29.3334H19.3334V32.0001C18.9654 32.0001 18.6667 32.2988 18.6667 32.6667C18.6667 33.0347 18.9654 33.3334 19.3334 33.3334V36.0001H16V29.3334Z" fill=" #C84D34"/>
<path d="M35.3333 28.6665H32.6666C32.2987 28.6665 32 28.9652 32 29.3331V33.3331C32 33.7011 32.2987 33.9998 32.6666 33.9998H35.3333C35.7012 33.9998 35.9999 33.7011 35.9999 33.3331V29.3331C35.9999 28.9652 35.7012 28.6665 35.3333 28.6665ZM34.6666 32.6665H33.3332V29.9999H34.6666V32.6665Z" fill=" #C84D34"/>
<path d="M35.3333 20.6665H32.6666C32.2987 20.6665 32 20.9652 32 21.3331V25.3331C32 25.7011 32.2987 25.9998 32.6666 25.9998H35.3333C35.7012 25.9998 35.9999 25.7011 35.9999 25.3331V21.3331C35.9999 20.9652 35.7012 20.6665 35.3333 20.6665ZM34.6666 24.6665H33.3332V21.9999H34.6666V24.6665Z" fill=" #C84D34"/>
<path d="M34.0001 38.6665H6.00014C5.63217 38.6665 5.3335 38.9652 5.3335 39.3331C5.3335 39.7011 5.63217 39.9999 6.00014 39.9999H34.0001C34.3681 39.9999 34.6668 39.7012 34.6668 39.3332C34.6668 38.9653 34.3681 38.6665 34.0001 38.6665Z" fill=" #C84D34"/>
<path d="M39.3334 14.6665C38.9654 14.6665 38.6667 14.9652 38.6667 15.3331V15.9998H31.3334C30.9654 15.9998 30.6667 16.2985 30.6667 16.6664C30.6667 17.0344 30.9654 17.3331 31.3334 17.3331H38.6667V39.3331C38.6667 39.701 38.9654 39.9997 39.3334 39.9997C39.7014 39.9997 40 39.701 40 39.3331V15.3331C40 14.9652 39.7014 14.6665 39.3334 14.6665Z" fill=" #C84D34"/>
<path d="M21.3335 24.6666C21.3335 25.0346 21.6322 25.3333 22.0001 25.3333H24.6668C25.0347 25.3333 25.3334 25.0346 25.3334 24.6666V20.6666C25.3334 20.2987 25.0347 20 24.6668 20H22.0001C21.6322 20 21.3335 20.2987 21.3335 20.6666V24.6666ZM22.6668 21.3334H24.0001V24H22.6668V21.3334Z" fill=" #C84D34"/>
<path d="M6.66664 32.6666C6.66664 32.58 6.62867 24 3.33328 24C0.0379688 24 0 32.58 0 32.6666C0 34.2766 1.14734 35.6227 2.66664 35.9327V39.3334C2.66664 39.7013 2.96531 40 3.33328 40C3.70125 40 3.99992 39.7013 3.99992 39.3334V35.9327C5.5193 35.6227 6.66664 34.2766 6.66664 32.6666ZM3.33336 34.6666C2.2307 34.6666 1.33336 33.7693 1.33336 32.6666C1.33336 29.3453 2.22539 25.3333 3.33336 25.3333C4.44133 25.3333 5.33336 29.3453 5.33336 32.6666C5.33336 33.7693 4.43602 34.6666 3.33336 34.6666Z" fill=" #C84D34"/>
<path d="M29.3333 34.0001V14.0001C29.3333 13.6322 29.0346 13.3335 28.6666 13.3335C28.2987 13.3335 28 13.6322 28 14.0001V34.0001C28 34.3681 28.2987 34.6668 28.6666 34.6668C29.0346 34.6668 29.3333 34.3681 29.3333 34.0001Z" fill=" #C84D34"/>
<path d="M22.0001 17.3333H24.6668C25.0347 17.3333 25.3334 17.0346 25.3334 16.6666V12.6666C25.3334 12.2987 25.0347 12 24.6668 12H22.0001C21.6322 12 21.3335 12.2987 21.3335 12.6666V16.6666C21.3335 17.0346 21.6322 17.3333 22.0001 17.3333ZM22.6668 13.3333H24.0001V15.9999H22.6668V13.3333Z" fill=" #C84D34"/>
<path d="M0.666641 23.3333C1.03461 23.3333 1.33328 23.0346 1.33328 22.6667V17.3333H8.66664C9.03461 17.3333 9.33328 17.0346 9.33328 16.6667C9.33328 16.2987 9.03461 16 8.66664 16H1.33336V15.3334C1.33336 14.9654 1.03469 14.6667 0.666719 14.6667C0.29875 14.6667 0 14.9653 0 15.3333V22.6667C0 23.0346 0.298672 23.3333 0.666641 23.3333Z" fill=" #C84D34"/>
</svg>
